<!DOCTYPE svg PUBLIC "-//W3C//DTD SVG 1.1//EN" "http://www.w3.org/Graphics/SVG/1.1/DTD/svg11.dtd">
<!-- Uploaded to: SVG Repo, www.svgrepo.com, Transformed by: SVG Repo Mixer Tools -->
<svg height="64px" width="64px" version="1.1" id="Layer_1" xmlns="http://www.w3.org/2000/svg" xmlns:xlink="http://www.w3.org/1999/xlink" viewBox="0 0 508.953 508.953" xml:space="preserve" fill="#000000">
<g id="SVGRepo_bgCarrier" stroke-width="0"/>
<g id="SVGRepo_tracerCarrier" stroke-linecap="round" stroke-linejoin="round"/>
<g id="SVGRepo_iconCarrier"> <g transform="translate(1 1)"> <g> <path style="fill:#FFFFFF;" d="M139.817,216.966c13.653-2.56,28.16-2.56,42.667,0.853l4.267-5.12l0,0 c-21.333-10.24-41.813-13.653-61.44-11.947c-35.84,4.267-57.173,44.373-42.667,80.213c11.093,27.307,31.573,58.88,59.733,88.747 c-23.04-24.747-39.253-52.053-47.787-75.947C83.497,263.046,105.684,223.793,139.817,216.966"/> <path style="fill:#FFFFFF;" d="M338.644,277.553l56.32-56.32c-23.893-6.827-46.933-20.48-67.413-40.96 s-34.133-44.373-40.107-68.267l-58.027,56.32l-46.933,46.933c5.973,24.747,22.187,46.08,41.813,66.56 c20.48,20.48,42.667,35.84,66.56,41.813L338.644,277.553z"/> <path style="fill:#FFFFFF;" d="M323.284,45.446c-6.827-15.36-9.387-27.307-3.413-32.427 c-48.64,48.64-37.547,118.613,11.947,168.96C295.124,145.286,290.004,91.526,323.284,45.446"/> </g> <path style="fill:#FFDD09;" d="M381.311,125.66c-40.96-40.96-62.293-84.48-49.493-97.28c-48.64,48.64-45.227,110.933-5.12,151.893 s100.693,46.08,148.48-1.707l-0.853-0.853C458.964,184.54,418.857,162.353,381.311,125.66"/> <path style="fill:#FFFFFF;" d="M335.231,33.5c12.8-12.8,52.053,5.973,90.453,41.813C377.897,29.233,330.111,2.78,317.311,15.58 c-12.8,12.8,13.653,60.587,59.733,108.373C342.057,85.553,323.284,46.3,335.231,33.5"/> <path style="fill:#FD9808;" d="M430.804,81.286c35.84,38.4,54.613,77.653,41.813,90.453c-12.8,12.8-52.053-5.973-90.453-41.813 c47.787,46.08,95.573,72.533,108.373,59.733C504.191,176.006,476.884,129.073,430.804,81.286"/> <polygon style="fill:#FFDD09;" points="7.551,499.42 115.924,342.406 164.564,391.046 "/> <path style="fill:#FCC309;" d="M322.431,261.34l56.32-56.32c-19.627-1.707-37.547-11.093-51.2-25.6 c-14.507-14.507-22.187-32.427-23.893-52.907l-58.027,58.027l-46.933,46.933c1.707,19.627,11.947,35.84,26.453,50.347 c14.507,14.507,30.72,23.893,50.347,26.453L322.431,261.34z"/> <path style="fill:#FFFFFF;" d="M241.364,188.806l50.347-50.347c-3.413-7.68-5.973-15.36-8.533-23.893l-58.027,58.027 l-46.933,47.787c5.973,24.747,22.187,46.08,41.813,66.56c-14.507-14.507-24.747-30.72-26.453-50.347L241.364,188.806z"/> <path style="fill:#FD9808;" d="M367.657,216.113l-49.493,49.493l-46.933,46.933c-19.627-1.707-35.84-11.947-50.347-26.453 c20.48,20.48,42.667,35.84,66.56,42.667l46.933-46.933l56.32-56.32C383.017,222.94,375.337,220.38,367.657,216.113"/> <g> <path style="fill:#FFDD09;" d="M292.564,368.86c3.413-19.627,11.947-28.16,5.12-48.64l-15.36-5.12 c-21.333-4.267-40.107-16.213-57.173-33.28c-17.067-17.067-29.867-35.84-33.28-57.173l-5.12-15.36l0,0 c-20.48-6.827-29.867,0-49.493,4.267c-35.84,6.827-60.587,46.08-48.64,76.8c8.533,23.893,26.453,51.2,51.2,75.947 s52.053,42.667,75.947,51.2C247.337,429.446,285.737,404.7,292.564,368.86"/> <path style="fill:#FFDD09;" d="M365.951,285.233L365.951,285.233L365.951,285.233L365.951,285.233"/> </g> <g> <path style="fill:#FD9808;" d="M294.271,314.246l-5.12,5.12c3.413,15.36,4.267,30.72,0.853,45.227 c-6.827,35.84-46.08,60.587-76.8,48.64c-23.893-8.533-51.2-26.453-75.947-51.2c29.867,29.867,61.44,52.053,88.747,64 c35.84,16.213,75.947-6.827,80.213-46.08C307.924,359.473,303.657,337.286,294.271,314.246"/> <path style="fill:#FD9808;" d="M493.097,189.66c-5.973,2.56-16.213,0-28.16-5.973c-46.08,36.693-99.84,29.013-136.533-8.533 C377.897,225.5,445.311,238.3,493.097,189.66L493.097,189.66z"/> </g> <path style="fill:#FCC309;" d="M478.591,173.446c-13.653,13.653-56.32-8.533-96.427-48.64s-61.44-83.627-48.64-96.427 c13.653-13.653,56.32,8.533,96.427,48.64S491.391,160.646,478.591,173.446"/> <path d="M487.124,203.313c-10.24,0-23.04-4.267-38.4-13.653c-22.187-12.8-47.787-33.28-72.533-58.027 C329.257,84.7,288.297,24.966,309.631,4.486c20.48-20.48,80.213,19.627,126.293,66.56c24.747,24.747,45.227,50.347,58.027,72.533 c15.36,26.453,17.92,44.373,7.68,53.76l0,0l0,0l0,0C498.217,201.606,493.097,203.313,487.124,203.313z M324.991,15.58 c-1.707,0-2.56,0-3.413,0.853c-5.12,5.12,10.24,46.933,66.56,102.4c23.893,23.893,48.64,43.52,69.12,55.467 c23.04,13.653,32.427,11.947,33.28,11.093l0,0c0.853-0.853,2.56-10.24-11.093-33.28c-11.947-21.333-31.573-45.227-55.467-69.12 C374.484,34.353,336.937,15.58,324.991,15.58z"/> <path d="M7.551,507.953c-2.56,0-4.267-0.853-5.973-2.56c-2.56-2.56-3.413-7.68-0.853-11.093l108.373-157.013 c1.707-1.707,3.413-3.413,5.973-3.413s5.12,0.853,6.827,2.56l48.64,48.64c1.707,1.707,2.56,4.267,2.56,6.827 s-1.707,5.12-3.413,5.973L12.671,506.246C10.964,507.1,9.257,507.953,7.551,507.953z M117.631,356.06L41.684,465.286l110.08-75.947 L117.631,356.06z"/> <path d="M423.124,233.18c-34.133,0-69.973-16.213-101.547-47.787c-26.453-26.453-42.667-58.027-45.227-90.453 c-3.413-34.133,8.533-65.707,33.28-90.453c3.413-3.413,8.533-3.413,11.947,0c3.413,3.413,3.413,8.533,0,11.947 c-5.12,5.12,10.24,46.933,66.56,102.4l0,0c48.64,48.64,91.307,70.827,101.547,66.56c3.413-0.853,6.827,0,9.387,1.707l0.853,0.853 c3.413,3.413,3.413,8.533,0,11.947C477.737,222.94,450.431,233.18,423.124,233.18z M306.217,35.206 c-11.093,17.067-15.36,37.547-13.653,58.88c2.56,28.16,17.067,56.32,40.107,80.213c37.547,37.547,93.867,58.88,139.093,27.307 c-27.307-8.533-65.707-37.547-97.28-69.12l0,0l0,0C343.764,100.06,315.604,62.513,306.217,35.206z"/> <path id="SVGCleanerId_0" d="M290.857,333.02c-0.853,0-1.707,0-2.56,0c-23.893-6.827-46.933-21.333-69.973-44.373 c-24.747-24.747-39.253-46.933-44.373-69.973c-0.853-2.56,0-5.973,2.56-7.68l104.96-104.96c2.56-2.56,5.12-3.413,8.533-2.56 c2.56,0.853,5.12,3.413,5.973,5.973c5.973,23.04,18.773,45.227,37.547,64.853c19.627,19.627,40.96,32.427,64,39.253 c2.56,0.853,5.12,3.413,5.973,5.973c0.853,2.56,0,5.973-2.56,8.533l-104.107,102.4C295.977,332.166,293.417,333.02,290.857,333.02z M191.871,218.673c5.973,18.773,17.92,36.693,38.4,58.027c19.627,19.627,38.4,32.427,58.027,38.4l43.52-43.52l0,0l46.933-46.933 c-20.48-7.68-40.107-21.333-58.027-38.4c-17.067-17.067-30.72-37.547-38.4-58.88L191.871,218.673z"/> <g> <path id="SVGCleanerId_0_1_" d="M290.857,333.02c-0.853,0-1.707,0-2.56,0c-23.893-6.827-46.933-21.333-69.973-44.373 c-24.747-24.747-39.253-46.933-44.373-69.973c-0.853-2.56,0-5.973,2.56-7.68l104.96-104.96c2.56-2.56,5.12-3.413,8.533-2.56 c2.56,0.853,5.12,3.413,5.973,5.973c5.973,23.04,18.773,45.227,37.547,64.853c19.627,19.627,40.96,32.427,64,39.253 c2.56,0.853,5.12,3.413,5.973,5.973c0.853,2.56,0,5.973-2.56,8.533l-104.107,102.4C295.977,332.166,293.417,333.02,290.857,333.02 z M191.871,218.673c5.973,18.773,17.92,36.693,38.4,58.027c19.627,19.627,38.4,32.427,58.027,38.4l43.52-43.52l0,0l46.933-46.933 c-20.48-7.68-40.107-21.333-58.027-38.4c-17.067-17.067-30.72-37.547-38.4-58.88L191.871,218.673z"/> </g> <path d="M252.457,443.953c-9.387,0-17.92-1.707-27.307-5.973c-29.013-12.8-61.44-36.693-91.307-65.707 c-29.867-29.867-52.907-61.44-65.707-91.307c-8.533-19.627-7.68-40.96,2.56-59.733c10.24-17.92,29.013-29.867,50.347-32.427 c22.187-2.56,46.08,1.707,70.827,11.947c0.853,0.853,1.707,0.853,2.56,1.707c3.413,3.413,3.413,9.387,0,11.947l-2.56,2.56 c5.973,18.773,17.92,36.693,38.4,58.027c19.627,19.627,38.4,32.427,58.027,38.4l2.56-2.56c1.707-1.707,5.12-2.56,7.68-2.56 c2.56,0.853,5.12,2.56,5.973,5.12c10.24,24.747,14.507,47.787,11.947,69.973l0,0c-2.56,21.333-14.507,39.253-32.427,50.347 C274.644,441.393,263.551,443.953,252.457,443.953z M133.844,205.873c-3.413,0-6.827,0-11.093,0.853 c-16.213,1.707-29.013,10.24-36.693,23.893c-7.68,13.653-8.533,29.867-1.707,44.373c11.947,27.307,34.133,58.027,62.293,86.187 c28.16,28.16,58.88,50.347,86.187,62.293c14.507,6.827,30.72,5.973,44.373-1.707c13.653-7.68,22.187-21.333,23.893-36.693 c1.707-16.213-0.853-33.28-6.827-51.2c-1.707,0-2.56,0-4.267,0c-23.893-6.827-46.933-21.333-69.973-44.373 c-24.747-24.747-39.253-46.933-44.373-69.973c0-1.707,0-3.413,0-4.267C160.297,208.433,146.644,205.873,133.844,205.873z M308.777,384.22L308.777,384.22L308.777,384.22z"/> </g> </g>
</svg>